<svg width="35" height="35" viewBox="0 0 35 35" fill="none" xmlns="http://www.w3.org/2000/svg">
<g clip-path="url(#clip0_1290_315)">
<path d="M30.625 5.83333H26.9675L22.4671 0H12.5315L8.0325 5.83333H4.375C3.21468 5.83333 2.10188 6.29427 1.28141 7.11474C0.460936 7.93521 0 9.04801 0 10.2083L0 35H35V10.2083C35 9.04801 34.5391 7.93521 33.7186 7.11474C32.8981 6.29427 31.7853 5.83333 30.625 5.83333ZM13.9665 2.91667H21.035L23.2838 5.83333H11.7163L13.9665 2.91667ZM32.0833 32.0833H2.91667V10.2083C2.91667 9.82156 3.07031 9.45063 3.3438 9.17714C3.61729 8.90365 3.98823 8.75 4.375 8.75H30.625C31.0118 8.75 31.3827 8.90365 31.6562 9.17714C31.9297 9.45063 32.0833 9.82156 32.0833 10.2083V32.0833Z" fill="black"/>
<path d="M17.5 11.666C15.7694 11.666 14.0777 12.1792 12.6388 13.1407C11.1998 14.1021 10.0783 15.4687 9.41605 17.0675C8.75378 18.6664 8.5805 20.4257 8.91813 22.1231C9.25575 23.8204 10.0891 25.3795 11.3128 26.6032C12.5365 27.8269 14.0956 28.6603 15.793 28.9979C17.4903 29.3355 19.2496 29.1622 20.8485 28.5C22.4473 27.8377 23.8139 26.7162 24.7754 25.2773C25.7368 23.8383 26.25 22.1466 26.25 20.416C26.2477 18.0961 25.3251 15.8718 23.6846 14.2314C22.0442 12.5909 19.8199 11.6683 17.5 11.666ZM17.5 26.2493C16.3463 26.2493 15.2185 25.9072 14.2592 25.2663C13.2999 24.6253 12.5522 23.7142 12.1107 22.6483C11.6692 21.5824 11.5537 20.4095 11.7787 19.278C12.0038 18.1464 12.5594 17.107 13.3752 16.2912C14.191 15.4754 15.2304 14.9198 16.362 14.6948C17.4935 14.4697 18.6664 14.5852 19.7323 15.0267C20.7982 15.4682 21.7093 16.2159 22.3502 17.1752C22.9912 18.1345 23.3333 19.2623 23.3333 20.416C23.3333 21.9631 22.7187 23.4468 21.6248 24.5408C20.5308 25.6348 19.0471 26.2493 17.5 26.2493Z" fill="black"/>
</g>
<defs>
<clipPath id="clip0_1290_315">
<rect width="35" height="35" fill="white"/>
</clipPath>
</defs>
</svg>
